<svg id="google" xmlns="http://www.w3.org/2000/svg" viewBox="0 0 24 24.04"><defs><style>.cls-1{fill:none;}.cls-2{fill:#59c36a;}.cls-3{fill:#00a66c;}.cls-4{fill:#ffda2d;}.cls-5{fill:#4086f4;}.cls-6{fill:#4175df;}.cls-7{fill:#ff641a;}.cls-8{fill:#f03800;}</style></defs><rect id="bg" class="cls-1" y="0.04" width="24" height="24"/><g id="google-2"><path id="路径_10332" data-name="路径 10332" class="cls-2" d="M19.8,21.12A11.91,11.91,0,0,1,3,19.86a11.45,11.45,0,0,1-1.29-1.81l.79-3.6L6,13.8a6.39,6.39,0,0,0,6.09,4.5,6.22,6.22,0,0,0,3.72-1.21l3.34.51Z" transform="translate(0 0)"/><path id="路径_10333" data-name="路径 10333" class="cls-3" d="M19.73,21.12,19,17.6l-3.34-.51A6.23,6.23,0,0,1,12,18.31V24A12.09,12.09,0,0,0,19.73,21.12Z" transform="translate(0 0)"/><g id="Connected_Home" data-name="Connected Home"><g id="组_6250" data-name="组 6250"><g id="组_6249" data-name="组 6249"><g id="组_6248" data-name="组 6248"><path id="路径_10334" data-name="路径 10334" class="cls-4" d="M5.69,12A6.78,6.78,0,0,0,6,13.85L1.71,18.1a11.74,11.74,0,0,1,0-12.2l3.41.59L6,10.15A6.78,6.78,0,0,0,5.69,12Z" transform="translate(0 0)"/></g></g></g></g><path id="路径_10335" data-name="路径 10335" class="cls-5" d="M24,12a12.07,12.07,0,0,1-4.3,9.17l-4-4a6.25,6.25,0,0,0,2-2.31H12a.71.71,0,0,1-.71-.7h0V9.84a.7.7,0,0,1,.7-.71H23.09a.71.71,0,0,1,.7.58A12.05,12.05,0,0,1,24,12Z" transform="translate(0 0)"/><path id="路径_10336" data-name="路径 10336" class="cls-6" d="M17.64,14.78a6.25,6.25,0,0,1-2,2.31l4,4A11.94,11.94,0,0,0,23.79,9.71a.7.7,0,0,0-.69-.58H12v5.65Z" transform="translate(0 0)"/><path id="路径_10337" data-name="路径 10337" class="cls-7" d="M20,3.37a.68.68,0,0,1-.2.52l-3,3a.69.69,0,0,1-.92.08,6.33,6.33,0,0,0-3.81-1.28A6.42,6.42,0,0,0,6,10.19L1.71,6a11.92,11.92,0,0,1,18-3.11.79.79,0,0,1,.26.52Z" transform="translate(0 0)"/><path id="路径_10338" data-name="路径 10338" class="cls-8" d="M15.79,7a.69.69,0,0,0,.92-.08l3-3a.72.72,0,0,0,.2-.52.73.73,0,0,0-.26-.53A12,12,0,0,0,12,0V5.69A6.33,6.33,0,0,1,15.79,7Z" transform="translate(0 0)"/></g></svg>